<?xml version="1.0" encoding="UTF-8"?>
<svg version="1.1" xmlns="http://www.w3.org/2000/svg" width="509" height="392">
<path d="M0 0 C3.48958557 1.16319519 3.86456442 1.87672901 5.81225586 4.86694336 C6.62472023 6.10105202 6.62472023 6.10105202 7.45359802 7.36009216 C8.03480911 8.26091019 8.6160202 9.16172821 9.21484375 10.08984375 C9.82582413 11.02236465 10.4368045 11.95488556 11.06629944 12.91566467 C13.03107626 15.91798781 14.98452199 18.9274916 16.9375 21.9375 C18.21863421 23.9008912 19.50052728 25.86378747 20.78320312 27.82617188 C21.72597359 29.27246223 21.72597359 29.27246223 22.68778992 30.74797058 C23.95592329 32.68436822 25.23216156 34.61548216 26.51643372 36.54121399 C29.54432335 41.10237985 32.39627744 45.6415303 34.93432617 50.49487305 C38.94537483 58.66441693 38.94537483 58.66441693 46.06240845 63.61367798 C51.03235077 64.0175335 55.87477328 63.11683209 60.7689209 62.31680298 C69.31642262 61.10188945 79.84098154 60.36241133 87.21099854 65.55895996 C97.45990779 75.127609 103.91640544 88.75169833 110.56835938 100.90087891 C115.42996383 109.69273863 121.06138845 117.96057968 126.67541504 126.28305054 C129.12334955 129.92821614 131.53114862 133.59908536 133.93914795 137.27070618 C141.68866258 149.08441273 149.57945673 160.80055529 157.5 172.5 C167.27098725 186.9327379 176.93312083 201.43117138 186.5 216 C195.57653638 229.82069592 204.72242795 243.59023582 213.98110962 257.28967285 C215.79333147 259.97163194 217.60335768 262.6550604 219.4128418 265.33886719 C224.7156873 273.20018466 230.0295239 281.05311783 235.39131165 288.87438965 C237.67105099 292.20529604 239.93821456 295.54463671 242.20297241 298.88574219 C243.26412297 300.44448123 244.33108262 301.99928363 245.40420532 303.54980469 C246.87419781 305.6745301 248.32380502 307.81184381 249.76953125 309.953125 C250.20233398 310.56778625 250.63513672 311.18244751 251.08105469 311.81573486 C254.19371945 316.49329394 254 317.82307781 254 324 C86.03 324 -81.94 324 -255 324 C-253.60736123 320.51840308 -252.55776679 318.08369098 -250.57104492 315.07568359 C-250.08302902 314.33220673 -249.59501312 313.58872986 -249.09220886 312.82272339 C-248.56033463 312.02270905 -248.02846039 311.2226947 -247.48046875 310.3984375 C-246.63812431 309.12046799 -246.63812431 309.12046799 -245.77876282 307.81668091 C-243.91972872 304.99963612 -242.0538116 302.1872277 -240.1875 299.375 C-238.87483345 297.39008409 -237.5623361 295.40505627 -236.25 293.41992188 C-226.81590449 279.16729289 -217.275589 264.98755888 -207.69491577 250.83319092 C-198.52799245 237.2880701 -189.47731464 223.67145228 -180.5 210 C-167.71434168 190.52920363 -154.72585856 171.20062605 -141.66763306 151.91183472 C-136.74261326 144.63167051 -131.8626476 137.32193353 -127 130 C-123.37324312 131.35789685 -120.13105701 132.98968552 -116.8046875 134.96875 C-115.84175781 135.53980469 -114.87882813 136.11085937 -113.88671875 136.69921875 C-112.89285156 137.29347656 -111.89898437 137.88773438 -110.875 138.5 C-109.87339844 139.09425781 -108.87179688 139.68851563 -107.83984375 140.30078125 C-100.51926436 144.65382376 -100.51926436 144.65382376 -97 147 C-96.6757605 146.02075562 -96.6757605 146.02075562 -96.3449707 145.02172852 C-94.51040026 140.90002252 -92.02828668 137.36462208 -89.48046875 133.65234375 C-88.91890579 132.82529434 -88.35734283 131.99824493 -87.77876282 131.14613342 C-86.55966172 129.35108626 -85.33856883 127.55739057 -84.11572266 125.76489258 C-80.79906259 120.90160564 -77.49886725 116.02718271 -74.19921875 111.15234375 C-73.51644867 110.14400482 -72.83367859 109.13566589 -72.13021851 108.09677124 C-65.16267838 97.79064595 -58.32448626 87.40116215 -51.5 77 C-38.65322229 57.43160781 -25.59899163 38.0081801 -12.47592163 18.62426758 C-8.28812551 12.43542402 -4.13037749 6.22731425 0 0 Z " fill="#E0EAEF" transform="translate(255,67)"/>
<path d="M0 0 C3.48958557 1.16319519 3.86456442 1.87672901 5.81225586 4.86694336 C6.35389877 5.68968246 6.89554169 6.51242157 7.45359802 7.36009216 C8.03480911 8.26091019 8.6160202 9.16172821 9.21484375 10.08984375 C9.82582413 11.02236465 10.4368045 11.95488556 11.06629944 12.91566467 C13.03107626 15.91798781 14.98452199 18.9274916 16.9375 21.9375 C18.21863421 23.9008912 19.50052728 25.86378747 20.78320312 27.82617188 C21.41171677 28.79036545 22.04023041 29.75455902 22.68778992 30.74797058 C23.95592329 32.68436822 25.23216156 34.61548216 26.51643372 36.54121399 C29.54432335 41.10237985 32.39627744 45.6415303 34.93432617 50.49487305 C38.94537483 58.66441693 38.94537483 58.66441693 46.06240845 63.61367798 C51.03235077 64.0175335 55.87477328 63.11683209 60.7689209 62.31680298 C69.31642262 61.10188945 79.84098154 60.36241133 87.21099854 65.55895996 C97.45990779 75.127609 103.91640544 88.75169833 110.56835938 100.90087891 C115.42996383 109.69273863 121.06138845 117.96057968 126.67541504 126.28305054 C129.12334955 129.92821614 131.53114862 133.59908536 133.93914795 137.27070618 C141.68866258 149.08441273 149.57945673 160.80055529 157.5 172.5 C167.27098725 186.9327379 176.93312083 201.43117138 186.5 216 C195.57668654 229.82092456 204.72265709 243.59075964 213.98138428 257.29049683 C215.79239154 259.9702455 217.60171953 262.65112078 219.41064453 265.33227539 C224.73128662 273.21562083 230.06009056 281.09306162 235.417099 288.95175171 C237.70485818 292.31296596 239.98252778 295.68093126 242.25790405 299.05053711 C243.3271848 300.62888097 244.40103117 302.20414234 245.47964478 303.77612305 C246.95374719 305.92518736 248.41212757 308.08410946 249.8671875 310.24609375 C250.30515152 310.87623886 250.74311554 311.50638397 251.1943512 312.15562439 C254.05443889 316.45445636 254.05443889 316.45445636 253.75830078 319.42211914 C253.50806152 319.94281982 253.25782227 320.46352051 253 321 C242.83020107 313.58799723 232.7487022 306.0872779 222.84423828 298.32373047 C217.284029 293.97441658 211.65831252 289.72070986 206 285.5 C198.67184422 280.03244502 191.42411841 274.4729726 184.2199707 268.84326172 C179.30815308 265.00776051 174.35354651 261.2383312 169.35546875 257.515625 C164.87707407 254.1704869 160.44260349 250.7674167 156 247.375 C148.96506675 242.00414983 141.90374659 236.67124012 134.8125 231.375 C127.54855257 225.9470267 120.36431703 220.42606127 113.21923828 214.84277344 C108.30774103 211.00733563 103.35331173 207.23815632 98.35546875 203.515625 C93.87707317 200.17048623 89.44265372 196.76735243 85 193.375 C74.71192694 185.5226917 64.3669153 177.74781647 54 170 C48.65626942 172.89018891 43.95894874 176.18898765 39.1875 179.9375 C30.93221843 186.33849304 22.50533467 192.47250478 14.01367188 198.5546875 C9.65914065 201.68015123 5.33115563 204.84226319 1 208 C-1.06825288 205.31001869 -2.94125045 202.57558966 -4.71484375 199.68359375 C-5.22990479 198.84683105 -5.74496582 198.01006836 -6.27563477 197.14794922 C-6.82405029 196.25350098 -7.37246582 195.35905273 -7.9375 194.4375 C-13.73238104 185.03086899 -19.60214978 175.67486356 -25.51611328 166.34277344 C-28.01483594 162.39776806 -30.507066 158.44866484 -33 154.5 C-33.99996939 152.91664733 -34.99996938 151.33331399 -36 149.75 C-38 146.58333333 -40 143.41666667 -42 140.25 C-42.49564453 139.4652832 -42.99128906 138.68056641 -43.50195312 137.87207031 C-44.49563892 136.2986265 -45.48913051 134.72506003 -46.48242188 133.15136719 C-49.07739878 129.04066461 -51.67634465 124.93254442 -54.28125 120.828125 C-54.82007813 119.97798828 -55.35890625 119.12785156 -55.9140625 118.25195312 C-56.93884569 116.6352693 -57.96480558 115.01933049 -58.9921875 113.40429688 C-59.45882812 112.66759766 -59.92546875 111.93089844 -60.40625 111.171875 C-60.81166016 110.5334668 -61.21707031 109.89505859 -61.63476562 109.23730469 C-63.49089304 106.19553938 -65.24154324 103.09925669 -67 100 C-66.27337158 98.92782227 -65.54674316 97.85564453 -64.7980957 96.75097656 C-49.25460676 73.80529931 -33.82918934 50.78846169 -18.6340332 27.61035156 C-12.53997732 18.32144451 -6.39286938 9.08668081 0 0 Z " fill="#E0EAEF" transform="translate(255,67)"/>
<path d="M0 0 C6.95968384 4.42398508 13.46128566 9.37245279 19.96679688 14.42773438 C23.96056214 17.51609272 27.98227057 20.56792777 32 23.625 C33.82164485 25.011679 35.64325902 26.39839829 37.46484375 27.78515625 C38.38120605 28.4827002 39.29756836 29.18024414 40.24169922 29.89892578 C42.93470991 31.95026673 45.62587742 34.00399905 48.31640625 36.05859375 C56.91149435 42.61970532 65.52497896 49.15311747 74.1875 55.625 C81.45135458 61.05309987 88.63568021 66.57393658 95.78076172 72.15722656 C100.69368896 75.99378107 105.6499898 79.76354267 110.6484375 83.48828125 C115.10181157 86.81508258 119.51724067 90.19191177 123.9375 93.5625 C124.83758789 94.24868408 125.73767578 94.93486816 126.66503906 95.6418457 C131.21807884 99.11371947 135.76959154 102.58758766 140.3203125 106.0625 C149.73354814 113.24669964 159.1764088 120.38742447 168.66308594 127.47436523 C175.17346116 132.35066996 181.60722979 137.32022295 188.00268555 142.34619141 C188.68886963 142.88421387 189.37505371 143.42223633 190.08203125 143.9765625 C190.73381348 144.48864258 191.3855957 145.00072266 192.05712891 145.52832031 C193.99775949 146.99830287 195.99180778 148.35285246 198.01171875 149.7109375 C198.99785156 150.46632813 199.98398437 151.22171875 201 152 C201 152.99 201 153.98 201 155 C135.66 155 70.32 155 3 155 C-1.78136285 145.4372743 -6.55481116 135.88355804 -11.1875 126.25 C-11.73865479 125.10515137 -12.28980957 123.96030273 -12.85766602 122.78076172 C-17.33787694 113.44396909 -21.70027444 104.05516895 -26.0402832 94.65258789 C-30.0655657 85.95470165 -34.19538172 77.31186733 -38.375 68.6875 C-46.50178467 51.90907983 -46.50178467 51.90907983 -49.375 45.8125 C-49.89835937 44.70519531 -50.42171875 43.59789062 -50.9609375 42.45703125 C-52 40 -52 40 -52 38 C-50.55737305 36.70996094 -50.55737305 36.70996094 -48.51171875 35.234375 C-47.75205811 34.68104492 -46.99239746 34.12771484 -46.2097168 33.55761719 C-45.37738525 32.96110352 -44.54505371 32.36458984 -43.6875 31.75 C-41.93734387 30.47938169 -40.18734836 29.20854212 -38.4375 27.9375 C-37.53515625 27.28523438 -36.6328125 26.63296875 -35.703125 25.9609375 C-32.31142361 23.5004836 -28.9424497 21.01018221 -25.57470703 18.51708984 C-17.11361374 12.25390788 -8.59158576 6.08278666 0 0 Z " fill="#738C96" transform="translate(308,236)"/>
<path d="M0 0 C0.33 0 0.66 0 1 0 C1 67.98 1 135.96 1 206 C-4.62131519 200.37868481 -4.62131519 200.37868481 -6.47265625 197.2421875 C-6.89087646 196.54424072 -7.30909668 195.84629395 -7.73999023 195.12719727 C-8.17641846 194.38397217 -8.61284668 193.64074707 -9.0625 192.875 C-10.03254208 191.25572368 -11.00394141 189.6372598 -11.9765625 188.01953125 C-12.47446289 187.1888916 -12.97236328 186.35825195 -13.48535156 185.50244141 C-15.91513542 181.48804995 -18.42350691 177.52451691 -20.9375 173.5625 C-21.43580322 172.77601074 -21.93410645 171.98952148 -22.44750977 171.17919922 C-23.45922904 169.58291294 -24.47135489 167.98688428 -25.48388672 166.39111328 C-27.99487169 162.43095437 -30.49700753 158.46521334 -33 154.5 C-33.99995713 152.91663959 -34.99995714 151.33330626 -36 149.75 C-38 146.58333333 -40 143.41666667 -42 140.25 C-42.49564453 139.4652832 -42.99128906 138.68056641 -43.50195312 137.87207031 C-44.49563892 136.2986265 -45.48913051 134.72506003 -46.48242188 133.15136719 C-49.07739878 129.04066461 -51.67634465 124.93254442 -54.28125 120.828125 C-54.82007813 119.97798828 -55.35890625 119.12785156 -55.9140625 118.25195312 C-56.93884569 116.6352693 -57.96480558 115.01933049 -58.9921875 113.40429688 C-59.45882812 112.66759766 -59.92546875 111.93089844 -60.40625 111.171875 C-60.81166016 110.5334668 -61.21707031 109.89505859 -61.63476562 109.23730469 C-63.49089304 106.19553938 -65.24154324 103.09925669 -67 100 C-66.27337158 98.92782227 -65.54674316 97.85564453 -64.7980957 96.75097656 C-49.25460676 73.80529931 -33.82918934 50.78846169 -18.6340332 27.61035156 C-4.19716527 5.60176878 -4.19716527 5.60176878 0 0 Z " fill="#FEF4F4" transform="translate(255,67)"/>
<path d="M0 0 C3.8924024 3.46190628 6.25634209 7.44138287 8.875 11.875 C13.13133095 18.96063763 17.48598658 25.97278859 21.9375 32.9375 C22.82876587 34.33355469 22.82876587 34.33355469 23.73803711 35.7578125 C24.92539425 37.61749345 26.11297256 39.47703321 27.30078125 41.33642578 C29.85663446 45.34279913 32.39950597 49.35729463 34.9375 53.375 C35.65558838 54.51159058 35.65558838 54.51159058 36.38818359 55.67114258 C39.16969307 60.08032638 41.93716957 64.49803565 44.6953125 68.921875 C45.33154541 69.94216797 45.96777832 70.96246094 46.62329102 72.01367188 C47.90598665 74.07166924 49.18774042 76.13025397 50.46850586 78.18945312 C53.40845687 82.9043752 56.37212689 87.59724472 59.43359375 92.234375 C59.95429443 93.02440918 60.47499512 93.81444336 61.01147461 94.62841797 C61.98028602 96.09061292 62.95602473 97.54824933 63.93969727 99.00048828 C65.01940128 100.6290092 66.01948507 102.30990189 67 104 C66.67 104.66 66.34 105.32 66 106 C34.37695314 86.80029298 34.37695314 86.80029298 32.62333679 85.7355957 C31.4687265 85.0345834 30.31411428 84.33357429 29.15950012 83.63256836 C26.2862196 81.88809568 23.41297319 80.14356686 20.53979492 78.39892578 C15.1493169 75.12581621 9.75853761 71.85320639 4.36660767 68.58248901 C1.86577956 67.06545455 -0.63486536 65.54811828 -3.13549805 64.03076172 C-4.86554596 62.981154 -6.59585331 61.93197396 -8.32617188 60.8828125 C-15.90277762 56.28515946 -23.45725032 51.65291971 -31 47 C-27.67336837 40.78466261 -24.04760201 34.88557288 -20.078125 29.0625 C-19.53267029 28.25635254 -18.98721558 27.45020508 -18.42523193 26.61962891 C-17.28409098 24.93452841 -16.14118797 23.25061991 -14.99658203 21.56787109 C-13.23736705 18.9814267 -11.48347439 16.3914372 -9.73046875 13.80078125 C-8.6174902 12.15864897 -7.50421964 10.51671455 -6.390625 8.875 C-5.86462708 8.09906494 -5.33862915 7.32312988 -4.79669189 6.52368164 C-4.31238708 5.81203857 -3.82808228 5.10039551 -3.32910156 4.3671875 C-2.90228088 3.73925293 -2.47546021 3.11131836 -2.03570557 2.46435547 C-1 1 -1 1 0 0 Z " fill="#9BB9C3" transform="translate(188,168)"/>
<path d="M0 0 C2.47585157 3.30113542 4.13370108 6.07720422 5.8984375 9.75 C6.45305664 10.90040771 7.00767578 12.05081543 7.57910156 13.23608398 C8.17795896 14.49061547 8.77658519 15.74525733 9.375 17 C10.00472156 18.31265875 10.63460716 19.62523882 11.26464844 20.93774414 C15.8584768 30.52694554 20.35390697 40.16081718 24.80859375 49.81542969 C28.02477389 56.77671597 31.27904251 63.71840039 34.5703125 70.64453125 C34.96714233 71.47991928 35.36397217 72.31530731 35.77282715 73.17601013 C37.72680702 77.28759593 39.68409105 81.39757234 41.64550781 85.50561523 C42.37571956 87.04016922 43.10586555 88.5747545 43.8359375 90.109375 C44.31040817 91.09892937 44.31040817 91.09892937 44.79446411 92.10847473 C48.38395685 99.66525673 51.64084436 107.32192996 55 115 C36.85 115 18.7 115 0 115 C0 77.05 0 39.1 0 0 Z " fill="#B3D1D6" transform="translate(256,276)"/>
</svg>
